<svg viewBox="0 0 1200 430" xmlns="http://www.w3.org/2000/svg" role="img" aria-label="how corparius works: company config to scheduler to agent turn to guarded tool calls to the human gate to the store to the interfaces">
  <defs>
    <linearGradient id="bg" x1="0" y1="0" x2="0.4" y2="1"><stop offset="0" stop-color="#081A3E"/><stop offset="1" stop-color="#061232"/></linearGradient>
    <pattern id="dots" width="22" height="22" patternUnits="userSpaceOnUse"><circle cx="1.5" cy="1.5" r="1.1" fill="#537CD6"/></pattern>
    <radialGradient id="dm" cx="0.2" cy="-0.05" r="1.05"><stop offset="0.3" stop-color="#fff"/><stop offset="0.75" stop-color="#000"/></radialGradient>
    <mask id="fade"><rect width="1200" height="430" fill="url(#dm)"/></mask>
    <marker id="ah" markerWidth="8" markerHeight="8" refX="6" refY="4" orient="auto"><path d="M1 1 L6 4 L1 7" fill="none" stroke="#537CD6" stroke-width="1.6"/></marker>
  </defs>
  <rect width="1200" height="430" rx="16" fill="url(#bg)"/>
  <rect width="1200" height="430" fill="url(#dots)" opacity="0.16" mask="url(#fade)"/>
  <text x="36" y="42" font-family="ui-monospace,Menlo,Consolas,monospace" font-size="13" letter-spacing="3" fill="#8CCBFF">HOW IT WORKS · ONE TICK</text>
<rect x="36" y="78" width="344" height="96" rx="12" fill="#0A1D48" stroke="#254387" stroke-width="1.3" stroke-dasharray="5 4"/><text x="54" y="108" font-family="'Segoe UI',system-ui,sans-serif" font-size="16.5" font-weight="700" fill="#EFF4FC">company.yaml</text><text x="54" y="132" font-family="ui-monospace,Menlo,Consolas,monospace" font-size="12.5" fill="#9AA5BB">a business in plain language</text><rect x="428" y="78" width="344" height="96" rx="12" fill="#0A1D48" stroke="#254387" stroke-width="1.3"/><text x="446" y="108" font-family="'Segoe UI',system-ui,sans-serif" font-size="16.5" font-weight="700" fill="#EFF4FC">Scheduler</text><text x="446" y="132" font-family="ui-monospace,Menlo,Consolas,monospace" font-size="12.5" fill="#9AA5BB">picks the agents due this tick</text><rect x="820" y="78" width="344" height="96" rx="12" fill="#0A1D48" stroke="#254387" stroke-width="1.3"/><text x="838" y="108" font-family="'Segoe UI',system-ui,sans-serif" font-size="16.5" font-weight="700" fill="#EFF4FC">Agent turn</text><text x="838" y="132" font-family="ui-monospace,Menlo,Consolas,monospace" font-size="12.5" fill="#9AA5BB">HybridRouter · local, then cloud</text><rect x="36" y="214" width="344" height="96" rx="12" fill="#0A1D48" stroke="#254387" stroke-width="1.3"/><text x="54" y="244" font-family="'Segoe UI',system-ui,sans-serif" font-size="16.5" font-weight="700" fill="#EFF4FC">Tool calls</text><text x="54" y="268" font-family="ui-monospace,Menlo,Consolas,monospace" font-size="12.5" fill="#9AA5BB">guarded on every turn</text><rect x="428" y="214" width="344" height="96" rx="12" fill="#0A1D48" stroke="#EB933B" stroke-width="1.3"/><text x="446" y="244" font-family="'Segoe UI',system-ui,sans-serif" font-size="16.5" font-weight="700" fill="#EFF4FC">Human gate</text><text x="446" y="268" font-family="ui-monospace,Menlo,Consolas,monospace" font-size="12.5" fill="#9AA5BB">money / prod code wait for you</text><rect x="428" y="214" width="344" height="96" rx="12" fill="#EB933B" opacity="0.07"/><circle cx="750" cy="236" r="5" fill="#EB933B"/><rect x="820" y="214" width="344" height="96" rx="12" fill="#0A1D48" stroke="#254387" stroke-width="1.3"/><text x="838" y="244" font-family="'Segoe UI',system-ui,sans-serif" font-size="16.5" font-weight="700" fill="#EFF4FC">Store</text><text x="838" y="268" font-family="ui-monospace,Menlo,Consolas,monospace" font-size="12.5" fill="#9AA5BB">SQLite · actions, usage, approvals, KPIs</text><rect x="52" y="274" width="91" height="24" rx="12" fill="none" stroke="#254387" stroke-width="1"/><text x="98" y="290" text-anchor="middle" font-family="ui-monospace,Menlo,Consolas,monospace" font-size="11.5" fill="#9AA5BB">TokenBudget</text><rect x="151.4" y="274" width="77" height="24" rx="12" fill="none" stroke="#254387" stroke-width="1"/><text x="190" y="290" text-anchor="middle" font-family="ui-monospace,Menlo,Consolas,monospace" font-size="11.5" fill="#9AA5BB">LoopGuard</text><rect x="236.0" y="274" width="114" height="24" rx="12" fill="none" stroke="#254387" stroke-width="1"/><text x="293" y="290" text-anchor="middle" font-family="ui-monospace,Menlo,Consolas,monospace" font-size="11.5" fill="#9AA5BB">CircuitBreaker</text><path d="M380 126.0 L424 126.0" stroke="#537CD6" stroke-width="1.6" fill="none" marker-end="url(#ah)"/><path d="M772 126.0 L816 126.0" stroke="#537CD6" stroke-width="1.6" fill="none" marker-end="url(#ah)"/><path d="M992.0 174 L992.0 194 Q992.0 204 982.0 204 L218.0 204 Q208.0 204 208.0 214 L208.0 210" stroke="#537CD6" stroke-width="1.6" fill="none" marker-end="url(#ah)"/><path d="M380 262.0 L424 262.0" stroke="#537CD6" stroke-width="1.6" fill="none" marker-end="url(#ah)"/><path d="M772 262.0 L816 262.0" stroke="#537CD6" stroke-width="1.6" fill="none" marker-end="url(#ah)"/><path d="M992.0 310 L992.0 356" stroke="#537CD6" stroke-width="1.6" fill="none" marker-end="url(#ah)"/><rect x="36" y="360" width="1128" height="46" rx="12" fill="#0A1D48" stroke="#254387" stroke-width="1.3"/><text x="54" y="389" font-family="'Segoe UI',system-ui,sans-serif" font-size="14.5" font-weight="700" fill="#EFF4FC">Interfaces</text><circle cx="190" cy="383" r="3.5" fill="#64B8D2"/><text x="202" y="388" font-family="ui-monospace,Menlo,Consolas,monospace" font-size="13" fill="#9AA5BB">CLI</text><circle cx="380" cy="383" r="3.5" fill="#64B8D2"/><text x="392" y="388" font-family="ui-monospace,Menlo,Consolas,monospace" font-size="13" fill="#9AA5BB">operator console</text><circle cx="570" cy="383" r="3.5" fill="#64B8D2"/><text x="582" y="388" font-family="ui-monospace,Menlo,Consolas,monospace" font-size="13" fill="#9AA5BB">MCP server</text><circle cx="760" cy="383" r="3.5" fill="#64B8D2"/><text x="772" y="388" font-family="ui-monospace,Menlo,Consolas,monospace" font-size="13" fill="#9AA5BB">any paired client · /api/v1</text></svg>
